<?xml version="1.0" encoding="utf-8"?>
<!-- Generator: Adobe Illustrator 19.0.0, SVG Export Plug-In . SVG Version: 6.00 Build 0)  -->
<svg version="1.1" id="Layer_1" xmlns="http://www.w3.org/2000/svg" xmlns:xlink="http://www.w3.org/1999/xlink" x="0px" y="0px"
	 viewBox="0 0 308 201" style="enable-background:new 0 0 308 201;" xml:space="preserve">
<style type="text/css">
	.st0{fill:#E9F9FF;}
	.st1{fill:#FFFFFF;stroke:#1171E6;stroke-width:2;stroke-linecap:round;stroke-miterlimit:10;}
	.st2{fill:#BEE2ED;stroke:#1171E6;stroke-width:2;stroke-linecap:round;stroke-linejoin:round;stroke-miterlimit:10;}
	.st3{fill:none;stroke:#1171E6;stroke-width:2;stroke-linecap:round;stroke-miterlimit:10;}
	.st4{fill:#1171E6;}
	.st5{fill:none;stroke:#1171E6;stroke-width:2;stroke-linecap:round;stroke-linejoin:round;stroke-miterlimit:10;}
	.st6{fill:#FFFFFF;stroke:#1171E6;stroke-width:2;stroke-linecap:round;stroke-linejoin:round;stroke-miterlimit:10;}
	.st7{fill:#BEE2ED;stroke:#1171E6;stroke-width:2;stroke-linecap:round;stroke-miterlimit:10;}
	.st8{fill:none;}
</style>
<path id="XMLID_62_" class="st0" d="M230.4,183h2.2h14.9c4.1,0,7.4-3.4,7.4-7.5c0-4.1-3.3-7.5-7.4-7.5h-17.1c-4.1,0-7.4-3.4-7.4-7.5
	c0-4.1,3.3-7.5,7.4-7.5h49.8c4.1,0,7.4-3.4,7.4-7.5c0-4.1-3.3-7.5-7.4-7.5h-12.6c-4.1,0-7.4-3.4-7.4-7.5c0-4.1,3.3-7.5,7.4-7.5h12.6
	H295c4.1,0,7.4-3.4,7.4-7.5c0-4.1-3.3-7.5-7.4-7.5H45.8c-4.1,0-7.4,3.4-7.4,7.5c0,4.1,3.3,7.5,7.4,7.5h9.7c4.1,0,7.4,3.4,7.4,7.5
	c0,4.1-3.3,7.5-7.4,7.5H31c-4.1,0-7.4,3.4-7.4,7.5c0,4.1,3.3,7.5,7.4,7.5h54.7c4.1,0,7.4,3.4,7.4,7.5c0,4.1-3.3,7.5-7.4,7.5H65.8
	c-4.1,0-7.4,3.4-7.4,7.5c0,4.1,3.3,7.5,7.4,7.5h9.7H230.4z M233,130.4c0-4.1,3.3-7.4,7.4-7.4h2.1c4.1,0,7.4,3.3,7.4,7.4v0.1
	c0,4.1-3.3,7.4-7.4,7.4h-2.1c-4.1,0-7.4-3.3-7.4-7.4V130.4z M104,160.4c0-4.1,3.3-7.4,7.4-7.4h10.1c4.1,0,7.4,3.3,7.4,7.4v0.1
	c0,4.1-3.3,7.4-7.4,7.4h-10.1c-4.1,0-7.4-3.3-7.4-7.4V160.4z"/>
<path id="XMLID_60_" class="st0" d="M79.6,19h-2.2H62.5c-4.1,0-7.4,3.4-7.4,7.5c0,4.1,3.3,7.5,7.4,7.5h17.1c4.1,0,7.4,3.4,7.4,7.5
	c0,4.1-3.3,7.5-7.4,7.5H19.8c-4.1,0-7.4,3.4-7.4,7.5c0,4.1,3.3,7.5,7.4,7.5h22.6c4.1,0,7.4,3.4,7.4,7.5c0,4.1-3.3,7.5-7.4,7.5h-2.6
	H35c-4.1,0-7.4,3.4-7.4,7.5c0,4.1,3.3,7.5,7.4,7.5h229.2c4.1,0,7.4-3.4,7.4-7.5c0-4.1-3.3-7.5-7.4-7.5h-9.7c-4.1,0-7.4-3.4-7.4-7.5
	c0-4.1,3.3-7.5,7.4-7.5H279c4.1,0,7.4-3.4,7.4-7.5c0-4.1-3.3-7.5-7.4-7.5h-54.7c-4.1,0-7.4-3.4-7.4-7.5c0-4.1,3.3-7.5,7.4-7.5h9.8
	c4.1,0,7.4-3.4,7.4-7.5c0-4.1-3.3-7.5-7.4-7.5h-9.7H79.6z M78,71.6c0,4.1-3.3,7.4-7.4,7.4h-2.1c-4.1,0-7.4-3.3-7.4-7.4v-0.1
	c0-4.1,3.3-7.4,7.4-7.4h2.1c4.1,0,7.4,3.3,7.4,7.4V71.6z M207,41.6c0,4.1-3.3,7.4-7.4,7.4h-10.1c-4.1,0-7.4-3.3-7.4-7.4v-0.1
	c0-4.1,3.3-7.4,7.4-7.4h10.1c4.1,0,7.4,3.3,7.4,7.4V41.6z"/>
<path id="XMLID_45_" class="st0" d="M130,151.4c0-4.1-3.3-7.4-7.4-7.4h-10.1c-4.1,0-7.4,3.3-7.4,7.4v0.1c0,4.1,3.3,7.4,7.4,7.4h10.1
	c4.1,0,7.4-3.3,7.4-7.4V151.4z"/>
<path id="XMLID_44_" class="st0" d="M286,175.4c0-4.1-3.3-7.4-7.4-7.4h-10.1c-4.1,0-7.4,3.3-7.4,7.4v0.1c0,4.1,3.3,7.4,7.4,7.4h10.1
	c4.1,0,7.4-3.3,7.4-7.4V175.4z"/>
<path id="XMLID_43_" class="st1" d="M154,61h-21c-3.6,0-6.7-2.4-7.7-5.7c-3.8,2.9-6.3,7.5-6.3,12.7v21c0,8.8,7.2,16,16,16h8
	c8.8,0,16-7.2,16-16V68c0-2.8-0.7-5.3-1.9-7.6C156.1,60.8,155.1,61,154,61z"/>
<path id="XMLID_42_" class="st2" d="M149,39c0,0,1,5-5,6c-3.6,0-7,0-7.5,0C122,45,115,53,115,66.5v8c0,3.5,1.6,6.6,4,8.7V68
	c0-5.2,2.5-9.8,6.3-12.7c1,3.3,4,5.7,7.7,5.7h5h16c0.3,0,0.5,0,0.8,0c0.2,0,0.5-0.1,0.7-0.1c0,0,0.1,0,0.1,0c0.5-0.1,1-0.3,1.5-0.5
	c2.9-1.2,4.9-4.1,4.9-7.4C162,52.3,164,38,149,39z"/>
<path id="XMLID_41_" class="st3" d="M104,97c0,12,15,12,15,12h30c4.4,0,8,3.6,8,8v12"/>
<path id="XMLID_40_" class="st3" d="M125.4,68.2c0,0,3.6-2.6,7.1,0.1"/>
<circle id="XMLID_39_" class="st4" cx="128.6" cy="74.7" r="1.7"/>
<path id="XMLID_38_" class="st3" d="M145.4,68.2c0,0,3.6-2.6,7.1,0.1"/>
<circle id="XMLID_37_" class="st4" cx="148.6" cy="74.7" r="1.7"/>
<polyline id="XMLID_36_" class="st5" points="141,71 141,83 137,83 "/>
<path id="XMLID_35_" class="st6" d="M161.3,56.4c-0.8,1.8-2.3,3.3-4.2,4c0,0,0,0,0,0c1.2,2.3,1.9,4.9,1.9,7.6v15.2
	c2.4-2.1,4-5.2,4-8.7v-8C163,62.6,162.4,59.3,161.3,56.4z"/>
<path id="XMLID_34_" class="st6" d="M159,72.7V85c3.2-0.3,5.7-2.9,5.7-6.1S162.2,72.9,159,72.7z"/>
<path id="XMLID_33_" class="st1" d="M135,105c0,1.4,0,4.7,0,5c0,0.6,1.6,1,3.5,1c1.9,0,3.5-0.4,3.5-1c0-0.2,0-3.9,0-5H135z"/>
<path id="XMLID_32_" class="st5" d="M142,98h-3c-2.2,0-4-1.8-4-4s1.8-4,4-4h3"/>
<rect id="XMLID_31_" x="157" y="122" class="st7" width="55" height="33"/>
<rect id="XMLID_1_" x="157" y="122" class="st1" width="31" height="33"/>
<polygon id="XMLID_29_" class="st7" points="222,109 197,109 187,122 212,122 "/>
<polygon id="XMLID_28_" class="st1" points="147,109 172,109 182,122 157,122 "/>
<path id="XMLID_27_" class="st1" d="M216,135c0,1.1-0.9,2-2,2h-5c-1.1,0-2-0.9-2-2l0,0c0-1.1,0.9-2,2-2h5
	C215.1,133,216,133.9,216,135L216,135z"/>
<path id="XMLID_26_" class="st1" d="M216,139c0,1.1-0.9,2-2,2h-5c-1.1,0-2-0.9-2-2l0,0c0-1.1,0.9-2,2-2h5
	C215.1,137,216,137.9,216,139L216,139z"/>
<path id="XMLID_25_" class="st1" d="M216,143c0,1.1-0.9,2-2,2h-5c-1.1,0-2-0.9-2-2l0,0c0-1.1,0.9-2,2-2h5
	C215.1,141,216,141.9,216,143L216,143z"/>
<rect id="XMLID_24_" x="101" y="135" class="st7" width="47" height="33"/>
<rect id="XMLID_23_" x="101" y="135" class="st1" width="34" height="33"/>
<path id="XMLID_22_" class="st2" d="M206,95h-4h-19v4.5c0,1.8-1.3,3.2-3,3.4v0.1h26c2,0.1,3-1.7,3-3.5V95H206z"/>
<path id="XMLID_21_" class="st2" d="M172.5,81c-1.9,0-3.5,1.6-3.5,3.5V90h7v-5.5C176,82.6,174.4,81,172.5,81z"/>
<path id="XMLID_20_" class="st1" d="M198.5,81c-0.2,0-25.5,0-25.5,0v0.1c1.7,0.2,3,1.7,3,3.4V95v4v0.5c0,1.9,1.6,3.5,3.5,3.5
	c0.2,0,0.3,0,0.5-0.1c0.2,0,0.4-0.1,0.6-0.1c0,0,0,0,0,0c0.2-0.1,0.4-0.1,0.5-0.2c0,0,0.1,0,0.1,0c0.1-0.1,0.3-0.2,0.4-0.3
	c0,0,0.1-0.1,0.1-0.1c0.1-0.1,0.2-0.2,0.3-0.3c0.1-0.1,0.1-0.1,0.1-0.2c0.1-0.1,0.2-0.2,0.2-0.3c0.1-0.1,0.1-0.2,0.1-0.3
	c0-0.1,0.1-0.2,0.1-0.3c0-0.1,0.1-0.3,0.1-0.4c0-0.1,0.1-0.2,0.1-0.2c0-0.2,0.1-0.4,0.1-0.7V99v-4h19V84.5
	C202,82.6,200.4,81,198.5,81z"/>
<path id="XMLID_19_" class="st2" d="M213,81h-4h-19v4.5c0,1.8-1.3,3.2-3,3.4V89h26c2,0.1,3-1.7,3-3.5V81H213z"/>
<path id="XMLID_18_" class="st2" d="M179.5,67c-1.9,0-3.5,1.6-3.5,3.5V76h7v-5.5C183,68.6,181.4,67,179.5,67z"/>
<path id="XMLID_17_" class="st1" d="M205.5,67c-0.2,0-25.5,0-25.5,0v0.1c1.7,0.2,3,1.7,3,3.4V81v4v0.5c0,1.9,1.6,3.5,3.5,3.5
	c0.2,0,0.3,0,0.5-0.1c0.2,0,0.4-0.1,0.6-0.1c0,0,0,0,0,0c0.2-0.1,0.4-0.1,0.5-0.2c0,0,0.1,0,0.1,0c0.1-0.1,0.3-0.2,0.4-0.3
	c0,0,0.1-0.1,0.1-0.1c0.1-0.1,0.2-0.2,0.3-0.3c0.1-0.1,0.1-0.1,0.1-0.2c0.1-0.1,0.2-0.2,0.2-0.3c0.1-0.1,0.1-0.2,0.1-0.3
	c0-0.1,0.1-0.2,0.1-0.3c0-0.1,0.1-0.3,0.1-0.4c0-0.1,0.1-0.2,0.1-0.2c0-0.2,0.1-0.4,0.1-0.7V85v-4h19V70.5
	C209,68.6,207.4,67,205.5,67z"/>
<path id="XMLID_16_" class="st7" d="M74,118h4h19v4.5c0,1.8,1.3,3.2,3,3.4v0.1H74c-2,0.1-3-1.7-3-3.5V118H74z"/>
<path id="XMLID_15_" class="st7" d="M107.5,82c1.9,0,3.5,1.6,3.5,3.5V91h-7v-5.5C104,83.6,105.6,82,107.5,82z"/>
<path id="XMLID_14_" class="st1" d="M81.5,82c0.2,0,25.5,0,25.5,0v0.1c-1.7,0.2-3,1.7-3,3.4V118v4v0.5c0,1.9-1.6,3.5-3.5,3.5
	c-0.2,0-0.3,0-0.5-0.1c-0.2,0-0.4-0.1-0.6-0.1c0,0,0,0,0,0c-0.2-0.1-0.4-0.1-0.5-0.2c0,0-0.1,0-0.1,0c-0.1-0.1-0.3-0.2-0.4-0.3
	c0,0-0.1-0.1-0.1-0.1c-0.1-0.1-0.2-0.2-0.3-0.3c-0.1-0.1-0.1-0.1-0.1-0.2c-0.1-0.1-0.2-0.2-0.2-0.3c-0.1-0.1-0.1-0.2-0.1-0.3
	c0-0.1-0.1-0.2-0.1-0.3c0-0.1-0.1-0.3-0.1-0.4c0-0.1-0.1-0.2-0.1-0.2c0-0.2-0.1-0.4-0.1-0.7V122v-4H78V85.5C78,83.6,79.6,82,81.5,82
	z"/>
<path id="XMLID_13_" class="st1" d="M82,89c0,1.1-0.9,2-2,2h-5c-1.1,0-2-0.9-2-2l0,0c0-1.1,0.9-2,2-2h5C81.1,87,82,87.9,82,89L82,89
	z"/>
<path id="XMLID_12_" class="st1" d="M82,93c0,1.1-0.9,2-2,2h-5c-1.1,0-2-0.9-2-2l0,0c0-1.1,0.9-2,2-2h5C81.1,91,82,91.9,82,93L82,93
	z"/>
<path id="XMLID_11_" class="st1" d="M82,97c0,1.1-0.9,2-2,2h-5c-1.1,0-2-0.9-2-2l0,0c0-1.1,0.9-2,2-2h5C81.1,95,82,95.9,82,97L82,97
	z"/>
<path id="XMLID_10_" class="st5" d="M120,135v-12c0,0-10,2-16-5"/>
<path id="XMLID_8_" class="st6" d="M119,72.7V85c-4-0.3-5.7-2.9-5.7-6.1S115,72.9,119,72.7z"/>
<line id="XMLID_7_" class="st5" x1="244" y1="58" x2="244" y2="63"/>
<line id="XMLID_6_" class="st5" x1="244" y1="71" x2="244" y2="76"/>
<line id="XMLID_5_" class="st5" x1="253" y1="67" x2="248" y2="67"/>
<line id="XMLID_4_" class="st5" x1="240" y1="67" x2="235" y2="67"/>
<circle id="XMLID_3_" class="st5" cx="215" cy="50" r="3"/>
<circle id="XMLID_2_" class="st4" cx="229.5" cy="93.5" r="1.5"/>
<rect id="XMLID_30_" x="105" y="159.3" class="st0" width="6.4" height="3.7"/>
<rect id="XMLID_54_" x="161.3" y="148" class="st0" width="6.4" height="3.7"/>
<path id="XMLID_56_" class="st8" d="M199.6,34h-10.1c-4.1,0-7.4,3.3-7.4,7.4v0.1c0,4.1,3.3,7.4,7.4,7.4h10.1c4.1,0,7.4-3.3,7.4-7.4
	v-0.1C207,37.3,203.7,34,199.6,34z"/>
<path id="XMLID_57_" class="st8" d="M70.6,64h-2.1c-4.1,0-7.4,3.3-7.4,7.4v0.1c0,4.1,3.3,7.4,7.4,7.4h2.1c4.1,0,7.4-3.3,7.4-7.4
	v-0.1C78,67.3,74.7,64,70.6,64z"/>
<path id="XMLID_48_" class="st8" d="M111.4,168h10.1c4.1,0,7.4-3.3,7.4-7.4v-0.1c0-4.1-3.3-7.4-7.4-7.4h-10.1
	c-4.1,0-7.4,3.3-7.4,7.4v0.1C104,164.7,107.3,168,111.4,168z"/>
<path id="XMLID_49_" class="st8" d="M240.4,138h2.1c4.1,0,7.4-3.3,7.4-7.4v-0.1c0-4.1-3.3-7.4-7.4-7.4h-2.1c-4.1,0-7.4,3.3-7.4,7.4
	v0.1C233,134.7,236.3,138,240.4,138z"/>
</svg>
