<!-- Generator: Adobe Illustrator 21.0.2, SVG Export Plug-In  -->
<svg version="1.1"
	 xmlns="http://www.w3.org/2000/svg" xmlns:xlink="http://www.w3.org/1999/xlink" xmlns:a="http://ns.adobe.com/AdobeSVGViewerExtensions/3.0/"
	 x="0px" y="0px" width="820.6px" height="422px" viewBox="0 0 820.6 422" style="enable-background:new 0 0 820.6 422;"
	 xml:space="preserve">
<style type="text/css">
	.st0{fill:#1FA0DA;}
</style>
<defs>
</defs>
<path class="st0" d="M774.3,393h-2.7c-14.5,0-28.3-6.5-37.1-18c-14.5-18.8-37.2-31-62.6-31l-34.4-0.4c-13.7,0-24.8-11.1-24.8-24.8v0
	c0-13.7,11.1-24.8,24.8-24.8h60.1h30.5c26.1,0,47.5-21.4,47.5-47.5v0c0-26.1-21.4-47.5-47.5-47.5h-115h-72c-8.5,0-15.5-7-15.5-15.5
	v0c0-8.5,7-15.5,15.5-15.5h34.5c46.2,0,84-37.8,84-84v0c0-46.2-37.8-84-84-84L413.3,0c-24.1,0-43.7,19.6-43.7,43.7v0
	c0,16.7-13.6,30.3-30.3,30.3H181.6h-22h-28c-26,0-47,21-47,47v0c0,26,21,47,47,47h78.5c8.5,0,15.5,7,15.5,15.5v0
	c0,8.5-7,15.5-15.5,15.5H41.6c-19.2,0-35,15.7-35,35v0c0,19.2,15.7,35,35,35h117c21,0,38,17,38,38v0c0,21-17,38-38,38h-20.2
	c-21.6,2.6-40.5,14.1-53,30.7c-7.4,9.8-19.1,15.3-31.4,15.3H31c-17.1,0-31,13.9-31,31v0h110.1v0h454.7h106h149.8
	C812.2,404.9,794.6,393,774.3,393z"/>
</svg>
