<!-- Generator: Adobe Illustrator 21.0.2, SVG Export Plug-In  -->
<svg version="1.1"
	 xmlns="http://www.w3.org/2000/svg" xmlns:xlink="http://www.w3.org/1999/xlink" xmlns:a="http://ns.adobe.com/AdobeSVGViewerExtensions/3.0/"
	 x="0px" y="0px" width="117px" height="101.5px" viewBox="0 0 117 101.5" style="enable-background:new 0 0 117 101.5;"
	 xml:space="preserve">
<style type="text/css">
	.st0{fill:#0D8BB8;}
	.st1{fill:#FFFFFF;}
</style>
<defs>
</defs>
<path class="st0" d="M106.3,4H10.7C4.8,4,0,8.8,0,14.7V74c0,5.9,4.8,10.7,10.7,10.7h3.5v16.8l22.6-16.8h69.5
	c5.9,0,10.7-4.8,10.7-10.7V14.7C117,8.8,112.2,4,106.3,4z"/>
<path class="st1" d="M106.3,0H10.7C4.8,0,0,4.8,0,10.7V70c0,5.9,4.8,10.7,10.7,10.7h3.5v16.8l22.6-16.8h69.5
	c5.9,0,10.7-4.8,10.7-10.7V10.7C117,4.8,112.2,0,106.3,0z"/>
</svg>
