<!-- Generator: Adobe Illustrator 21.0.2, SVG Export Plug-In  -->
<svg version="1.1"
	 xmlns="http://www.w3.org/2000/svg" xmlns:xlink="http://www.w3.org/1999/xlink" xmlns:a="http://ns.adobe.com/AdobeSVGViewerExtensions/3.0/"
	 x="0px" y="0px" width="37.5px" height="60.5px" viewBox="0 0 37.5 60.5" style="enable-background:new 0 0 37.5 60.5;"
	 xml:space="preserve">
<style type="text/css">
	.st0{fill:#DFE0E2;}
	.st1{fill:#FFFFFF;}
	.st2{fill:#F2F3F4;}
	.st3{fill:none;stroke:#4AB749;stroke-linecap:round;stroke-linejoin:round;stroke-miterlimit:10;}
	.st4{fill:#4AB749;}
	.st5{fill:none;stroke:#DFE0E2;stroke-miterlimit:10;}
</style>
<defs>
</defs>
<path class="st0" d="M35.5,0H17v19.1c0,4.7,3.8,8.4,8.4,8.4h12.1V2C37.5,0.9,36.6,0,35.5,0z"/>
<path class="st1" d="M33.5,60.5H2c-1.1,0-2-0.9-2-2V2c0-1.1,0.9-2,2-2h31.5c1.1,0,2,0.9,2,2v56.5C35.5,59.6,34.6,60.5,33.5,60.5z"/>
<path class="st2" d="M32.1,53.3H3.4c-0.9,0-1.6-0.7-1.6-1.6V9.4c0-0.9,0.7-1.6,1.6-1.6h28.7c0.9,0,1.6,0.7,1.6,1.6v42.4
	C33.7,52.6,33,53.3,32.1,53.3z"/>
<path class="st0" d="M20.6,5h-6c-0.2,0-0.4-0.2-0.4-0.4v0c0-0.2,0.2-0.4,0.4-0.4h6c0.2,0,0.4,0.2,0.4,0.4v0C21,4.8,20.8,5,20.6,5z"
	/>
<polyline class="st3" points="6.6,31.5 11.8,26.3 17.5,26.2 22.9,21.4 28.5,21.4 "/>
<circle class="st4" cx="28.7" cy="21.3" r="1.2"/>
<line class="st5" x1="18.5" y1="47.5" x2="18.5" y2="29.5"/>
<polyline class="st5" points="6.5,35.5 6.5,47.5 29.5,47.5 29.5,24.5 "/>
</svg>
