<!-- Generator: Adobe Illustrator 21.0.2, SVG Export Plug-In  -->
<svg version="1.1"
	 xmlns="http://www.w3.org/2000/svg" xmlns:xlink="http://www.w3.org/1999/xlink" xmlns:a="http://ns.adobe.com/AdobeSVGViewerExtensions/3.0/"
	 x="0px" y="0px" width="807.2px" height="86px" viewBox="0 0 807.2 86" style="enable-background:new 0 0 807.2 86;"
	 xml:space="preserve">
<style type="text/css">
	.st0{fill:#27AEE4;}
</style>
<defs>
</defs>
<g>
	<path class="st0" d="M805.1,70.5H669.4c-6.9,0-12-5.4-12-12.6l-0.1-11.7c0-8.1-6.6-14.6-14.6-14.6h-64.9v-9.6c4.7-1.9,8-6.4,8-11.8
		V2c0-0.6-0.4-1-1-1s-1,0.4-1,1v8.1c0,4.2-2.5,7.8-6,9.6V2c0-0.6-0.4-1-1-1s-1,0.4-1,1v18.4c-0.9,0.2-1.7,0.3-2.7,0.3h-9.3V1
		c0-0.6-0.4-1-1-1H421.3c-0.6,0-1,0.4-1,1v19.8h-8.8c-0.9,0-1.8-0.1-2.7-0.3V2c0-0.6-0.4-1-1-1s-1,0.4-1,1v17.7
		c-3.5-1.7-6-5.4-6-9.6V2c0-0.6-0.4-1-1-1s-1,0.4-1,1v8.1c0,5.3,3.3,9.9,8,11.8v28.2c0,7,5.7,12.7,12.7,12.7h0.8V85c0,0.6,0.4,1,1,1
		h141.5c0.6,0,1-0.4,1-1V62.8h1.3c7,0,12.7-5.7,12.7-12.7V33.5h64.9c7,0,12.6,5.7,12.6,12.6l0.1,11.7c0,8.2,6.2,14.6,14,14.6h137.8
		C806.5,71.8,805.8,71.1,805.1,70.5z M422.3,2h139.5v37H422.3V2z M554.2,41.6v1.9h-5.9v-1.9H554.2z M546.2,41v3H436.4v-3H546.2z
		 M434.2,41.6v1.9h-5.9v-1.9H434.2z M420.3,45v15.8h-0.8c-5.9,0-10.7-4.8-10.7-10.7V22.5c0.9,0.2,1.7,0.3,2.7,0.3h8.8V40
		c0,0.6,0.4,1,1,1h4.9v3h-4.9C420.8,44,420.3,44.4,420.3,45z M561.8,84H422.3V62.6c0.3-0.2,0.5-0.5,0.5-0.8s-0.2-0.7-0.5-0.8V46
		h139.5V84z M575.8,50.1c0,5.9-4.8,10.7-10.7,10.7h-1.3V45c0-0.6-0.4-1-1-1h-6.4v-3h6.4c0.6,0,1-0.4,1-1V22.8h9.3
		c0.9,0,1.8-0.1,2.7-0.3V50.1z"/>
	<path class="st0" d="M319.1,22c2.9,0,5.2-2.4,5.2-5.2s-2.4-5.2-5.2-5.2s-5.2,2.4-5.2,5.2S316.2,22,319.1,22z M319.1,13.5
		c1.8,0,3.2,1.5,3.2,3.2c0,1.8-1.5,3.2-3.2,3.2c-1.8,0-3.2-1.5-3.2-3.2C315.8,15,317.3,13.5,319.1,13.5z"/>
	<path class="st0" d="M303.6,12h-32.5c-0.6,0-1,0.4-1,1v18.8c0,0.6,0.4,1,1,1h32.5c0.6,0,1-0.4,1-1V13C304.6,12.4,304.2,12,303.6,12
		z M302.6,30.8h-30.5V14h30.5V30.8z"/>
	<path class="st0" d="M285.7,26.9c0.2,0.2,0.4,0.2,0.6,0.2c0.3,0,0.6-0.1,0.8-0.4l3.8-4.6c0.6,0.8,0.8,1.8,0.8,2.8c0,0.6,0.4,1,1,1
		s1-0.4,1-1c0-1.9-0.8-3.8-2.1-5.1c-0.2-0.2-0.5-0.3-0.8-0.3c-0.3,0-0.5,0.1-0.7,0.4l-4.6,5.5C285.2,25.9,285.2,26.5,285.7,26.9z"/>
	<path class="st0" d="M280.4,26c0.6,0,1-0.4,1-1c0-2.8,2.3-5.2,5.2-5.2c0.4,0,0.9,0.1,1.3,0.2c0.5,0.1,1.1-0.2,1.2-0.7
		c0.1-0.5-0.2-1.1-0.7-1.2c-0.6-0.1-1.2-0.2-1.8-0.2c-4,0-7.2,3.2-7.2,7.2C279.4,25.6,279.8,26,280.4,26z"/>
	<path class="st0" d="M260.3,12.2h-8c-0.6,0-1,0.4-1,1s0.4,1,1,1h8c0.6,0,1-0.4,1-1S260.9,12.2,260.3,12.2z"/>
	<path class="st0" d="M219,14.2h26.7c0.6,0,1-0.4,1-1s-0.4-1-1-1H219c-0.6,0-1,0.4-1,1S218.4,14.2,219,14.2z"/>
	<path class="st0" d="M204.3,14.2h7.5c0.6,0,1-0.4,1-1s-0.4-1-1-1h-7.5c-0.6,0-1,0.4-1,1S203.8,14.2,204.3,14.2z"/>
	<path class="st0" d="M260.3,18.2h-22.5c-0.6,0-1,0.4-1,1s0.4,1,1,1h22.5c0.6,0,1-0.4,1-1S260.9,18.2,260.3,18.2z"/>
	<path class="st0" d="M204.3,20.2h23c0.6,0,1-0.4,1-1s-0.4-1-1-1h-23c-0.6,0-1,0.4-1,1S203.8,20.2,204.3,20.2z"/>
	<path class="st0" d="M260.3,24.2h-17c-0.6,0-1,0.4-1,1s0.4,1,1,1h17c0.6,0,1-0.4,1-1S260.9,24.2,260.3,24.2z"/>
	<path class="st0" d="M239.5,25.2c0-0.6-0.4-1-1-1h-18.2c-0.6,0-1,0.4-1,1s0.4,1,1,1h18.2C239,26.2,239.5,25.7,239.5,25.2z"/>
	<path class="st0" d="M204.3,26.2h10.8c0.6,0,1-0.4,1-1s-0.4-1-1-1h-10.8c-0.6,0-1,0.4-1,1S203.8,26.2,204.3,26.2z"/>
	<path class="st0" d="M260.3,30.2h-20.2c-0.6,0-1,0.4-1,1s0.4,1,1,1h20.2c0.6,0,1-0.4,1-1S260.9,30.2,260.3,30.2z"/>
	<path class="st0" d="M230.8,30.2h-16.8c-0.6,0-1,0.4-1,1s0.4,1,1,1h16.8c0.6,0,1-0.4,1-1S231.4,30.2,230.8,30.2z"/>
	<path class="st0" d="M208.1,30.2h-3.8c-0.6,0-1,0.4-1,1s0.4,1,1,1h3.8c0.6,0,1-0.4,1-1S208.6,30.2,208.1,30.2z"/>
	<path class="st0" d="M323.8,26h-9c-0.6,0-1,0.4-1,1s0.4,1,1,1h9c0.6,0,1-0.4,1-1S324.4,26,323.8,26z"/>
	<path class="st0" d="M323.8,31h-9c-0.6,0-1,0.4-1,1s0.4,1,1,1h9c0.6,0,1-0.4,1-1S324.4,31,323.8,31z"/>
	<path class="st0" d="M319.1,66c2.9,0,5.2-2.4,5.2-5.2c0-2.9-2.4-5.2-5.2-5.2s-5.2,2.4-5.2,5.2C313.8,63.6,316.2,66,319.1,66z
		 M319.1,57.5c1.8,0,3.2,1.5,3.2,3.2s-1.5,3.2-3.2,3.2c-1.8,0-3.2-1.5-3.2-3.2S317.3,57.5,319.1,57.5z"/>
	<path class="st0" d="M271.1,76.8h32.5c0.6,0,1-0.4,1-1V57c0-0.6-0.4-1-1-1h-32.5c-0.6,0-1,0.4-1,1v18.8
		C270.1,76.4,270.6,76.8,271.1,76.8z M272.1,58h30.5v16.8h-30.5V58z"/>
	<path class="st0" d="M290.8,63.6c-0.3,0-0.5,0.1-0.7,0.4l-4.6,5.5c-0.4,0.4-0.3,1.1,0.1,1.4c0.2,0.2,0.4,0.2,0.6,0.2
		c0.3,0,0.6-0.1,0.8-0.4l3.8-4.6c0.6,0.8,0.8,1.8,0.8,2.8c0,0.6,0.4,1,1,1s1-0.4,1-1c0-1.9-0.8-3.8-2.1-5.1
		C291.4,63.7,291.1,63.6,290.8,63.6z"/>
	<path class="st0" d="M287.8,64c0.5,0.1,1.1-0.2,1.2-0.7c0.1-0.5-0.2-1.1-0.7-1.2c-0.6-0.1-1.2-0.2-1.8-0.2c-4,0-7.2,3.2-7.2,7.2
		c0,0.6,0.4,1,1,1s1-0.4,1-1c0-2.8,2.3-5.2,5.2-5.2C287,63.9,287.4,63.9,287.8,64z"/>
	<path class="st0" d="M252.3,58.2h8c0.6,0,1-0.4,1-1s-0.4-1-1-1h-8c-0.6,0-1,0.4-1,1S251.8,58.2,252.3,58.2z"/>
	<path class="st0" d="M219,58.2h26.7c0.6,0,1-0.4,1-1s-0.4-1-1-1H219c-0.6,0-1,0.4-1,1S218.4,58.2,219,58.2z"/>
	<path class="st0" d="M204.3,58.2h7.5c0.6,0,1-0.4,1-1s-0.4-1-1-1h-7.5c-0.6,0-1,0.4-1,1S203.8,58.2,204.3,58.2z"/>
	<path class="st0" d="M260.3,62.2h-22.5c-0.6,0-1,0.4-1,1s0.4,1,1,1h22.5c0.6,0,1-0.4,1-1S260.9,62.2,260.3,62.2z"/>
	<path class="st0" d="M204.3,64.2h23c0.6,0,1-0.4,1-1s-0.4-1-1-1h-23c-0.6,0-1,0.4-1,1S203.8,64.2,204.3,64.2z"/>
	<path class="st0" d="M260.3,68.2h-17c-0.6,0-1,0.4-1,1s0.4,1,1,1h17c0.6,0,1-0.4,1-1S260.9,68.2,260.3,68.2z"/>
	<path class="st0" d="M239.5,69.2c0-0.6-0.4-1-1-1h-18.2c-0.6,0-1,0.4-1,1s0.4,1,1,1h18.2C239,70.2,239.5,69.7,239.5,69.2z"/>
	<path class="st0" d="M204.3,70.2h10.8c0.6,0,1-0.4,1-1s-0.4-1-1-1h-10.8c-0.6,0-1,0.4-1,1S203.8,70.2,204.3,70.2z"/>
	<path class="st0" d="M260.3,74.2h-20.2c-0.6,0-1,0.4-1,1s0.4,1,1,1h20.2c0.6,0,1-0.4,1-1S260.9,74.2,260.3,74.2z"/>
	<path class="st0" d="M230.8,74.2h-16.8c-0.6,0-1,0.4-1,1s0.4,1,1,1h16.8c0.6,0,1-0.4,1-1S231.4,74.2,230.8,74.2z"/>
	<path class="st0" d="M204.3,76.2h3.8c0.6,0,1-0.4,1-1s-0.4-1-1-1h-3.8c-0.6,0-1,0.4-1,1S203.8,76.2,204.3,76.2z"/>
	<path class="st0" d="M314.8,72h9c0.6,0,1-0.4,1-1s-0.4-1-1-1h-9c-0.6,0-1,0.4-1,1S314.3,72,314.8,72z"/>
	<path class="st0" d="M314.8,77h9c0.6,0,1-0.4,1-1s-0.4-1-1-1h-9c-0.6,0-1,0.4-1,1S314.3,77,314.8,77z"/>
	<path class="st0" d="M547.1,22c2.9,0,5.2-2.4,5.2-5.2s-2.4-5.2-5.2-5.2s-5.2,2.4-5.2,5.2S544.2,22,547.1,22z M547.1,13.5
		c1.8,0,3.2,1.5,3.2,3.2c0,1.8-1.5,3.2-3.2,3.2c-1.8,0-3.2-1.5-3.2-3.2C543.8,15,545.3,13.5,547.1,13.5z"/>
	<path class="st0" d="M531.6,12h-32.5c-0.6,0-1,0.4-1,1v18.8c0,0.6,0.4,1,1,1h32.5c0.6,0,1-0.4,1-1V13C532.6,12.4,532.2,12,531.6,12
		z M530.6,30.8h-30.5V14h30.5V30.8z"/>
	<path class="st0" d="M513.7,26.9c0.2,0.2,0.4,0.2,0.6,0.2c0.3,0,0.6-0.1,0.8-0.4l3.8-4.6c0.6,0.8,0.8,1.8,0.8,2.8c0,0.6,0.4,1,1,1
		s1-0.4,1-1c0-1.9-0.8-3.8-2.1-5.1c-0.2-0.2-0.5-0.3-0.8-0.3c-0.3,0-0.5,0.1-0.7,0.4l-4.6,5.5C513.2,25.9,513.2,26.5,513.7,26.9z"/>
	<path class="st0" d="M508.4,26c0.6,0,1-0.4,1-1c0-2.8,2.3-5.2,5.2-5.2c0.4,0,0.9,0.1,1.3,0.2c0.5,0.1,1.1-0.2,1.2-0.7
		c0.1-0.5-0.2-1.1-0.7-1.2c-0.6-0.1-1.2-0.2-1.8-0.2c-4,0-7.2,3.2-7.2,7.2C507.4,25.6,507.8,26,508.4,26z"/>
	<path class="st0" d="M488.3,12.2h-8c-0.6,0-1,0.4-1,1s0.4,1,1,1h8c0.6,0,1-0.4,1-1S488.9,12.2,488.3,12.2z"/>
	<path class="st0" d="M447,14.2h26.7c0.6,0,1-0.4,1-1s-0.4-1-1-1H447c-0.6,0-1,0.4-1,1S446.4,14.2,447,14.2z"/>
	<path class="st0" d="M432.3,14.2h7.5c0.6,0,1-0.4,1-1s-0.4-1-1-1h-7.5c-0.6,0-1,0.4-1,1S431.8,14.2,432.3,14.2z"/>
	<path class="st0" d="M488.3,18.2h-22.5c-0.6,0-1,0.4-1,1s0.4,1,1,1h22.5c0.6,0,1-0.4,1-1S488.9,18.2,488.3,18.2z"/>
	<path class="st0" d="M432.3,20.2h23c0.6,0,1-0.4,1-1s-0.4-1-1-1h-23c-0.6,0-1,0.4-1,1S431.8,20.2,432.3,20.2z"/>
	<path class="st0" d="M488.3,24.2h-17c-0.6,0-1,0.4-1,1s0.4,1,1,1h17c0.6,0,1-0.4,1-1S488.9,24.2,488.3,24.2z"/>
	<path class="st0" d="M467.5,25.2c0-0.6-0.4-1-1-1h-18.2c-0.6,0-1,0.4-1,1s0.4,1,1,1h18.2C467,26.2,467.5,25.7,467.5,25.2z"/>
	<path class="st0" d="M432.3,26.2h10.8c0.6,0,1-0.4,1-1s-0.4-1-1-1h-10.8c-0.6,0-1,0.4-1,1S431.8,26.2,432.3,26.2z"/>
	<path class="st0" d="M488.3,30.2h-20.2c-0.6,0-1,0.4-1,1s0.4,1,1,1h20.2c0.6,0,1-0.4,1-1S488.9,30.2,488.3,30.2z"/>
	<path class="st0" d="M458.8,30.2h-16.8c-0.6,0-1,0.4-1,1s0.4,1,1,1h16.8c0.6,0,1-0.4,1-1S459.4,30.2,458.8,30.2z"/>
	<path class="st0" d="M436.1,30.2h-3.8c-0.6,0-1,0.4-1,1s0.4,1,1,1h3.8c0.6,0,1-0.4,1-1S436.6,30.2,436.1,30.2z"/>
	<path class="st0" d="M551.8,26h-9c-0.6,0-1,0.4-1,1s0.4,1,1,1h9c0.6,0,1-0.4,1-1S552.4,26,551.8,26z"/>
	<path class="st0" d="M551.8,31h-9c-0.6,0-1,0.4-1,1s0.4,1,1,1h9c0.6,0,1-0.4,1-1S552.4,31,551.8,31z"/>
	<path class="st0" d="M547.1,66c2.9,0,5.2-2.4,5.2-5.2c0-2.9-2.4-5.2-5.2-5.2s-5.2,2.4-5.2,5.2C541.8,63.6,544.2,66,547.1,66z
		 M547.1,57.5c1.8,0,3.2,1.5,3.2,3.2s-1.5,3.2-3.2,3.2c-1.8,0-3.2-1.5-3.2-3.2S545.3,57.5,547.1,57.5z"/>
	<path class="st0" d="M499.1,76.8h32.5c0.6,0,1-0.4,1-1V57c0-0.6-0.4-1-1-1h-32.5c-0.6,0-1,0.4-1,1v18.8
		C498.1,76.4,498.6,76.8,499.1,76.8z M500.1,58h30.5v16.8h-30.5V58z"/>
	<path class="st0" d="M518.8,63.6c-0.3,0-0.5,0.1-0.7,0.4l-4.6,5.5c-0.4,0.4-0.3,1.1,0.1,1.4c0.2,0.2,0.4,0.2,0.6,0.2
		c0.3,0,0.6-0.1,0.8-0.4l3.8-4.6c0.6,0.8,0.8,1.8,0.8,2.8c0,0.6,0.4,1,1,1s1-0.4,1-1c0-1.9-0.8-3.8-2.1-5.1
		C519.4,63.7,519.1,63.6,518.8,63.6z"/>
	<path class="st0" d="M515.8,64c0.5,0.1,1.1-0.2,1.2-0.7c0.1-0.5-0.2-1.1-0.7-1.2c-0.6-0.1-1.2-0.2-1.8-0.2c-4,0-7.2,3.2-7.2,7.2
		c0,0.6,0.4,1,1,1s1-0.4,1-1c0-2.8,2.3-5.2,5.2-5.2C515,63.9,515.4,63.9,515.8,64z"/>
	<path class="st0" d="M480.3,58.2h8c0.6,0,1-0.4,1-1s-0.4-1-1-1h-8c-0.6,0-1,0.4-1,1S479.8,58.2,480.3,58.2z"/>
	<path class="st0" d="M447,58.2h26.7c0.6,0,1-0.4,1-1s-0.4-1-1-1H447c-0.6,0-1,0.4-1,1S446.4,58.2,447,58.2z"/>
	<path class="st0" d="M432.3,58.2h7.5c0.6,0,1-0.4,1-1s-0.4-1-1-1h-7.5c-0.6,0-1,0.4-1,1S431.8,58.2,432.3,58.2z"/>
	<path class="st0" d="M488.3,62.2h-22.5c-0.6,0-1,0.4-1,1s0.4,1,1,1h22.5c0.6,0,1-0.4,1-1S488.9,62.2,488.3,62.2z"/>
	<path class="st0" d="M432.3,64.2h23c0.6,0,1-0.4,1-1s-0.4-1-1-1h-23c-0.6,0-1,0.4-1,1S431.8,64.2,432.3,64.2z"/>
	<path class="st0" d="M488.3,68.2h-17c-0.6,0-1,0.4-1,1s0.4,1,1,1h17c0.6,0,1-0.4,1-1S488.9,68.2,488.3,68.2z"/>
	<path class="st0" d="M467.5,69.2c0-0.6-0.4-1-1-1h-18.2c-0.6,0-1,0.4-1,1s0.4,1,1,1h18.2C467,70.2,467.5,69.7,467.5,69.2z"/>
	<path class="st0" d="M432.3,70.2h10.8c0.6,0,1-0.4,1-1s-0.4-1-1-1h-10.8c-0.6,0-1,0.4-1,1S431.8,70.2,432.3,70.2z"/>
	<path class="st0" d="M488.3,74.2h-20.2c-0.6,0-1,0.4-1,1s0.4,1,1,1h20.2c0.6,0,1-0.4,1-1S488.9,74.2,488.3,74.2z"/>
	<path class="st0" d="M458.8,74.2h-16.8c-0.6,0-1,0.4-1,1s0.4,1,1,1h16.8c0.6,0,1-0.4,1-1S459.4,74.2,458.8,74.2z"/>
	<path class="st0" d="M432.3,76.2h3.8c0.6,0,1-0.4,1-1s-0.4-1-1-1h-3.8c-0.6,0-1,0.4-1,1S431.8,76.2,432.3,76.2z"/>
	<path class="st0" d="M542.8,72h9c0.6,0,1-0.4,1-1s-0.4-1-1-1h-9c-0.6,0-1,0.4-1,1S542.3,72,542.8,72z"/>
	<path class="st0" d="M542.8,77h9c0.6,0,1-0.4,1-1s-0.4-1-1-1h-9c-0.6,0-1,0.4-1,1S542.3,77,542.8,77z"/>
	<path class="st0" d="M355.8,1c-0.6,0-1,0.4-1,1v8.1c0,4.2-2.5,7.8-6,9.6V2c0-0.6-0.4-1-1-1s-1,0.4-1,1v18.4
		c-0.9,0.2-1.7,0.3-2.7,0.3h-8.3V1c0-0.6-0.4-1-1-1H193.3c-0.6,0-1,0.4-1,1v19.8h-8.8c-0.9,0-1.8-0.1-2.7-0.3V2c0-0.6-0.4-1-1-1
		s-1,0.4-1,1v17.7c-3.5-1.7-6-5.4-6-9.6V2c0-0.6-0.4-1-1-1s-1,0.4-1,1v8.1c0,5.3,3.3,9.9,8,11.8v9.6h-26.9
		c-8.1,0-14.6,6.6-14.6,14.6l-0.1,11.7c0,7.2-5.2,12.6-12,12.6H1.1c-0.4,0.7-0.8,1.3-1.1,2h125.2c7.9,0,14-6.4,14-14.6l0.1-11.7
		c0-7,5.7-12.6,12.6-12.6h26.9v16.6c0,7,5.7,12.7,12.7,12.7h0.8V85c0,0.6,0.4,1,1,1h141.5c0.6,0,1-0.4,1-1V62.8h0.3
		c7,0,12.7-5.7,12.7-12.7V21.9c4.7-1.9,8-6.4,8-11.8V2C356.8,1.4,356.4,1,355.8,1z M194.3,2h139.5v37H194.3V2z M326.2,41.6v1.9h-5.9
		v-1.9H326.2z M318.2,41v3H208.4v-3H318.2z M206.2,41.6v1.9h-5.9v-1.9H206.2z M192.3,45v15.8h-0.8c-5.9,0-10.7-4.8-10.7-10.7V22.5
		c0.9,0.2,1.7,0.3,2.7,0.3h8.8V40c0,0.6,0.4,1,1,1h4.9v3h-4.9C192.8,44,192.3,44.4,192.3,45z M333.8,60.8c-0.6,0-1,0.4-1,1
		s0.4,1,1,1V84H194.3V62.6c0.3-0.2,0.5-0.5,0.5-0.8s-0.2-0.7-0.5-0.8V46h139.5V60.8z M346.8,50.1c0,5.9-4.8,10.7-10.7,10.7h-0.3V45
		c0-0.6-0.4-1-1-1h-6.4v-3h6.4c0.6,0,1-0.4,1-1V22.8h8.3c0.9,0,1.8-0.1,2.7-0.3V50.1z"/>
</g>
</svg>
