<!-- Generator: Adobe Illustrator 21.0.2, SVG Export Plug-In  -->
<svg version="1.1"
	 xmlns="http://www.w3.org/2000/svg" xmlns:xlink="http://www.w3.org/1999/xlink" xmlns:a="http://ns.adobe.com/AdobeSVGViewerExtensions/3.0/"
	 x="0px" y="0px" width="14.4px" height="14.4px" viewBox="0 0 14.4 14.4" style="enable-background:new 0 0 14.4 14.4;"
	 xml:space="preserve">
<style type="text/css">
	.st0{fill:#F6E502;}
</style>
<defs>
</defs>
<path class="st0" d="M14.3,7l-2.4-0.7c-1.8-0.5-3.3-2-3.8-3.8L7.4,0.1C7.3,0,7.1,0,7,0.1L6.3,2.5c-0.5,1.8-2,3.3-3.8,3.8L0.1,7
	C0,7.1,0,7.3,0.1,7.4l2.4,0.7c1.8,0.5,3.3,2,3.8,3.8L7,14.3c0.1,0.1,0.3,0.1,0.3,0l0.7-2.4c0.5-1.8,2-3.3,3.8-3.8l2.4-0.7
	C14.4,7.3,14.4,7.1,14.3,7z"/>
</svg>
