<!-- Generator: Adobe Illustrator 21.0.2, SVG Export Plug-In  -->
<svg version="1.1"
	 xmlns="http://www.w3.org/2000/svg" xmlns:xlink="http://www.w3.org/1999/xlink" xmlns:a="http://ns.adobe.com/AdobeSVGViewerExtensions/3.0/"
	 x="0px" y="0px" width="63px" height="30px" viewBox="0 0 63 30" style="enable-background:new 0 0 63 30;" xml:space="preserve">
<style type="text/css">
	.st0{fill:#1FA0DA;}
</style>
<defs>
</defs>
<g id="XMLID_1_">
	<path class="st0" d="M10,20h6c2.8,0,4-2.2,4-5s-2.2-5-5-5H5c-2.8,0-5-2.2-5-5c0-2.8,2.2-5,5-5h39c2.8,0,5,2.2,5,5c0,2.8-2.2,5-5,5
		h-2h-6V9.9c-2,0.5-4,2.5-4,4.9c0,2.4,2,4.4,4,4.9V20h1h1c2.8,0,5,2.2,5,5s-2.2,5-5,5H11c-2.8,0-5-2.2-5-5S7.2,20,10,20z"/>
	<path class="st0" d="M63,4.5C63,2,61,0,58.5,0h-1C55,0,53,2,53,4.5l0,0C53,7,55,9,57.5,9h1C61,9,63,7,63,4.5L63,4.5z"/>
</g>
</svg>
