<!-- Generator: Adobe Illustrator 21.0.2, SVG Export Plug-In  -->
<svg version="1.1"
	 xmlns="http://www.w3.org/2000/svg" xmlns:xlink="http://www.w3.org/1999/xlink" xmlns:a="http://ns.adobe.com/AdobeSVGViewerExtensions/3.0/"
	 x="0px" y="0px" width="63px" height="30px" viewBox="0 0 63 30" style="enable-background:new 0 0 63 30;" xml:space="preserve">
<style type="text/css">
	.st0{fill:#1FA0DA;}
</style>
<defs>
</defs>
<g id="XMLID_1_">
	<path class="st0" d="M53,20h-6c-2.8,0-4-2.2-4-5s2.2-5,5-5h10c2.8,0,5-2.2,5-5c0-2.8-2.2-5-5-5L19,0c-2.8,0-5,2.2-5,5
		c0,2.8,2.2,5,5,5h2h6V9.9c2,0.5,4,2.5,4,4.9c0,2.4-2,4.4-4,4.9V20h-1h-1c-2.8,0-5,2.2-5,5s2.2,5,5,5h27c2.8,0,5-2.2,5-5
		S55.8,20,53,20z"/>
	<path class="st0" d="M0,4.5C0,2,2,0,4.5,0l1,0C8,0,10,2,10,4.5l0,0C10,7,8,9,5.5,9h-1C2,9,0,7,0,4.5L0,4.5z"/>
</g>
</svg>
