<!-- Generator: Adobe Illustrator 21.0.2, SVG Export Plug-In  -->
<svg version="1.1"
	 xmlns="http://www.w3.org/2000/svg" xmlns:xlink="http://www.w3.org/1999/xlink" xmlns:a="http://ns.adobe.com/AdobeSVGViewerExtensions/3.0/"
	 x="0px" y="0px" width="26px" height="38.7px" viewBox="0 0 26 38.7" style="enable-background:new 0 0 26 38.7;"
	 xml:space="preserve">
<style type="text/css">
	.st0{fill:#E34362;}
	.st1{fill:#FFFFFF;}
</style>
<defs>
</defs>
<path class="st0" d="M24.3,17.7H22l0-8.5c0-4.2-2.8-7.9-6.8-8.9C9.3-1.1,4,3.3,4,8.8v8.8H1.7c-0.9,0-1.7,0.8-1.7,1.7v17.6
	c0,0.9,0.8,1.7,1.7,1.7h22.6c0.9,0,1.7-0.8,1.7-1.7V19.4C26,18.4,25.2,17.7,24.3,17.7z M7,8.8c0-3.9,3.4-7,7.3-6.1
	C17.1,3.4,19,6,19,8.9l0,8.8H7V8.8z"/>
<path class="st1" d="M14.6,26.1c0-1.1-0.9-2-2-2c-1.1,0-2,0.9-2,2c0,0.9,0.5,1.6,1.3,1.9V30h1.4v-2.1C14,27.7,14.6,26.9,14.6,26.1z"
	/>
</svg>
