<!-- Generator: Adobe Illustrator 21.0.2, SVG Export Plug-In  -->
<svg version="1.1"
	 xmlns="http://www.w3.org/2000/svg" xmlns:xlink="http://www.w3.org/1999/xlink" xmlns:a="http://ns.adobe.com/AdobeSVGViewerExtensions/3.0/"
	 x="0px" y="0px" width="72.5px" height="58.1px" viewBox="0 0 72.5 58.1" style="enable-background:new 0 0 72.5 58.1;"
	 xml:space="preserve">
<style type="text/css">
	.st0{fill:#1983A0;}
	.st1{fill:#1795C2;}
	.st2{fill:#F69320;}
	.st3{fill:#25A0DA;}
	.st4{fill:#DA7927;}
</style>
<defs>
</defs>
<path class="st0" d="M0,0.1v46.8c0,6.2,5,11.2,11.2,11.2h29.6c6.2,0,11.2-5,11.2-11.2V0.1H0z"/>
<path class="st1" d="M59.2,9.6H52V0.1h-8v46.8c0,6.2-5,11.2-11.2,11.2h8c6.2,0,11.2-5,11.2-11.2v-4.3h7.2c7.4,0,13.3-6,13.3-13.3V23
	C72.5,15.6,66.5,9.6,59.2,9.6z M67.5,29.3c0,4.6-3.7,8.3-8.3,8.3h-6.7v-23h6.7c4.6,0,8.3,3.7,8.3,8.3V29.3z"/>
<rect x="8.5" y="19.6" class="st2" width="11.7" height="12"/>
<g>
	<rect x="13.4" class="st3" width="2" height="19.6"/>
</g>
<rect x="10" y="21.8" class="st4" width="8.5" height="0.9"/>
<rect x="10" y="24.8" class="st4" width="8.5" height="0.9"/>
<rect x="10" y="27.8" class="st4" width="8.5" height="0.9"/>
</svg>
