<!-- Generator: Adobe Illustrator 21.0.2, SVG Export Plug-In  -->
<svg version="1.1"
	 xmlns="http://www.w3.org/2000/svg" xmlns:xlink="http://www.w3.org/1999/xlink" xmlns:a="http://ns.adobe.com/AdobeSVGViewerExtensions/3.0/"
	 x="0px" y="0px" width="223px" height="209px" viewBox="0 0 223 209" style="enable-background:new 0 0 223 209;"
	 xml:space="preserve">
<style type="text/css">
	.st0{fill:#F2F3F4;}
	.st1{fill:#4AB749;}
	.st2{fill:#DFE0E2;}
	.st3{fill:#FFFFFF;}
	.st4{fill:#F6E502;}
	.st5{fill:#C8C9CC;}
</style>
<defs>
</defs>
<path class="st0" d="M214.6,164H8.4c-4.7,0-8.4-3.8-8.4-8.4V8.4C0,3.8,3.8,0,8.4,0h206.1c4.7,0,8.4,3.8,8.4,8.4v147.1
	C223,160.2,219.2,164,214.6,164z"/>
<path class="st1" d="M215,11.5c0-1.4-1.1-2.5-2.5-2.5h-48.2H58.7H12.3C9.9,9,8,10.9,8,13.3V25h207V11.5z"/>
<path class="st2" d="M148.9,192.6c-9.3,0-10.9-6.9-10.9-6.9l-5-21.7H86.6l-5,21.7c0,0-1.9,7-11.2,7c-7.4,0-20.4-0.7-20.4,8.7v7.5
	h119v-7.5C169,192.1,156.3,192.6,148.9,192.6z"/>
<circle class="st3" cx="17.8" cy="16.9" r="2.2"/>
<circle class="st3" cx="25.4" cy="16.9" r="2.2"/>
<circle class="st3" cx="33" cy="16.9" r="2.2"/>
<g>
	<path class="st0" d="M128,193H91c-0.6,0-1-0.4-1-1s0.4-1,1-1h37c0.6,0,1,0.4,1,1S128.6,193,128,193z"/>
</g>
<rect x="8" y="25" class="st3" width="207" height="108"/>
<rect x="22" y="44" class="st0" width="116.7" height="11"/>
<rect x="22" y="64" class="st0" width="116.7" height="11"/>
<rect x="22" y="85" class="st0" width="116.7" height="11"/>
<path class="st4" d="M133.2,113h-15.7c-3,0-5.5-2.5-5.5-5.5v0c0-3,2.5-5.5,5.5-5.5h15.7c3,0,5.5,2.5,5.5,5.5v0
	C138.7,110.5,136.2,113,133.2,113z"/>
<circle class="st3" cx="108" cy="149.3" r="6.3"/>
<rect x="154" y="25" class="st2" width="61" height="108"/>
<circle class="st0" cx="185" cy="52.7" r="14.7"/>
<polygon class="st5" points="134.8,171.3 133.1,164 86.6,164 84.9,171.3 "/>
<rect x="50" y="204.5" class="st5" width="119" height="4.5"/>
</svg>
