<!-- Generator: Adobe Illustrator 21.0.2, SVG Export Plug-In  -->
<svg version="1.1"
	 xmlns="http://www.w3.org/2000/svg" xmlns:xlink="http://www.w3.org/1999/xlink" xmlns:a="http://ns.adobe.com/AdobeSVGViewerExtensions/3.0/"
	 x="0px" y="0px" width="18.5px" height="18.5px" viewBox="0 0 18.5 18.5" style="enable-background:new 0 0 18.5 18.5;"
	 xml:space="preserve">
<style type="text/css">
	.st0{fill:#F6E502;}
</style>
<defs>
</defs>
<path class="st0" d="M18.4,9l-3.1-0.9c-2.4-0.7-4.2-2.5-4.9-4.9L9.5,0.1C9.4,0,9.1,0,9,0.1L8.1,3.2C7.4,5.6,5.6,7.4,3.2,8.1L0.1,9
	C0,9.1,0,9.4,0.1,9.5l3.1,0.9c2.4,0.7,4.2,2.5,4.9,4.9L9,18.4c0.1,0.1,0.3,0.1,0.4,0l0.9-3.1c0.7-2.4,2.5-4.2,4.9-4.9l3.1-0.9
	C18.5,9.4,18.5,9.1,18.4,9z"/>
</svg>
