<!-- Generator: Adobe Illustrator 21.0.2, SVG Export Plug-In  -->
<svg version="1.1"
	 xmlns="http://www.w3.org/2000/svg" xmlns:xlink="http://www.w3.org/1999/xlink" xmlns:a="http://ns.adobe.com/AdobeSVGViewerExtensions/3.0/"
	 x="0px" y="0px" width="64px" height="43.3px" viewBox="0 0 64 43.3" style="enable-background:new 0 0 64 43.3;"
	 xml:space="preserve">
<style type="text/css">
	.st0{fill:none;stroke:#27AEE4;stroke-miterlimit:10;}
</style>
<defs>
</defs>
<g id="XMLID_1_">
	<path class="st0" d="M29,43.3v-8.8c0-2.2,1.8-4,4-4l5.3,0c2.6,0,4.9-1.9,5.2-4.5c0.3-3-2.1-5.5-5-5.5h-1h-1v-0.3
		c-2-0.5-4-2.5-4-4.9c0-2.4,2-4.4,4-4.9v0.1h6l1.8,0c2.6,0,4.9-1.9,5.2-4.5c0.3-3-2.1-5.5-5-5.5l-38.8,0C3.1,0.5,0.8,2.4,0.5,5
		c-0.3,3,2.1,5.5,5,5.5l10,0c2.7,0,5,2.2,5,5c0,2.8-1.2,5-4,5l-4.8,0c-2.6,0-4.9,1.9-5.2,4.5c-0.3,3,2.1,5.5,5,5.5h9
		c2.2,0,3.9,1.7,3.9,3.9v8.4"/>
	<path class="st0" d="M63.5,5c0-2.5-2-4.5-4.5-4.5h-1c-2.5,0-4.5,2-4.5,4.5l0,0c0,2.5,2,4.5,4.5,4.5h1C61.5,9.5,63.5,7.5,63.5,5
		L63.5,5z"/>
</g>
</svg>
