<!-- Generator: Adobe Illustrator 21.0.2, SVG Export Plug-In  -->
<svg version="1.1"
	 xmlns="http://www.w3.org/2000/svg" xmlns:xlink="http://www.w3.org/1999/xlink" xmlns:a="http://ns.adobe.com/AdobeSVGViewerExtensions/3.0/"
	 x="0px" y="0px" width="100.7px" height="87px" viewBox="0 0 100.7 87" style="enable-background:new 0 0 100.7 87;"
	 xml:space="preserve">
<style type="text/css">
	.st0{fill:#0D8BB8;}
	.st1{fill:#FFFFFF;}
</style>
<defs>
</defs>
<path class="st0" d="M100.7,45L87,31.3V12.3C87,7.1,82.9,3,77.7,3H12.3C7.1,3,3,7.1,3,12.3v65.5c0,5.1,4.1,9.3,9.3,9.3h65.5
	c5.1,0,9.3-4.1,9.3-9.3V58.7L100.7,45z"/>
<path class="st1" d="M97.7,42L84,28.3V9.3C84,4.1,79.9,0,74.7,0H9.3C4.1,0,0,4.1,0,9.3v65.5C0,79.9,4.1,84,9.3,84h65.5
	c5.1,0,9.3-4.1,9.3-9.3V55.7L97.7,42z"/>
</svg>
