<!-- Generator: Adobe Illustrator 21.0.2, SVG Export Plug-In  -->
<svg version="1.1"
	 xmlns="http://www.w3.org/2000/svg" xmlns:xlink="http://www.w3.org/1999/xlink" xmlns:a="http://ns.adobe.com/AdobeSVGViewerExtensions/3.0/"
	 x="0px" y="0px" width="25.7px" height="25.7px" viewBox="0 0 25.7 25.7" style="enable-background:new 0 0 25.7 25.7;"
	 xml:space="preserve">
<style type="text/css">
	.st0{fill:#F6E502;}
</style>
<defs>
</defs>
<path class="st0" d="M25.5,12.5l-4.3-1.2c-3.3-0.9-5.9-3.5-6.8-6.8l-1.2-4.3C13,0,12.7,0,12.5,0.1l-1.2,4.3
	c-0.9,3.3-3.5,5.9-6.8,6.8l-4.3,1.2C0,12.7,0,13,0.1,13.1l4.3,1.2c3.3,0.9,5.9,3.5,6.8,6.8l1.2,4.3c0.2,0.2,0.5,0.2,0.6,0l1.2-4.3
	c0.9-3.3,3.5-5.9,6.8-6.8l4.3-1.2C25.7,13,25.7,12.7,25.5,12.5z"/>
</svg>
